#!OML:ASF F:\VICON\USERDATA\INSTALL\rory3\rory3.ASF
:FULLY-SPECIFIED
:DEGREES
424
root 1.00776 17.7941 45.4511 -3.83614 0.175039 0.629141
lowerback 12.1734 -0.666313 -2.2355
upperback 0.222283 -1.09293 1.57382
thorax -6.53064 -0.439246 3.11769
lowerneck -15.828 -3.37724 -3.00988
upperneck 22.1516 -4.56876 2.51379
head 9.76498 -2.08949 0.781482
rclavicle -2.68856e-014 1.59028e-015
rhumerus -33.0749 -18.62 -77.7392
rradius 34.2242
rwrist 0.727588
rhand -17.2948 24.2986
rfingers 7.12502
rthumb 8.95085 -5.49153
lclavicle -2.68856e-014 1.59028e-015
lhumerus -27.4913 -0.105334 80.3185
lradius 29.3624
lwrist 9.40092
lhand -28.0395 18.1964
lfingers 7.12502
lthumb -1.42409 48.1714
rfemur -30.7328 -2.49127 22.0232
rtibia 51.5873
rfoot -8.8721 -10.8052
rtoes 1.876
lfemur 1.70372 -1.86623 -26.0092
ltibia 23.9838
lfoot -18.0105 -3.48033
ltoes 3.81979
425
root 0.991053 17.7838 45.5736 -3.45648 0.0815957 0.529854
lowerback 12.5664 -0.645792 -2.41784
upperback 0.314617 -1.08538 1.76265
thorax -6.64719 -0.425412 3.42876
lowerneck -17.0447 -3.34411 -2.9149
upperneck 22.3366 -4.4471 2.23233
head 10.0466 -2.04345 0.664669
rclavicle -1.55549e-014 8.34896e-015
rhumerus -32.5463 -18.727 -77.7779
rradius 34.2177
rwrist 0.994896
rhand -17.1802 23.9662
rfingers 7.12502
rthumb 9.06144 -5.81912
lclavicle -1.55549e-014 8.34896e-015
lhumerus -26.3123 -0.323985 80.3935
lradius 29.6001
lwrist 10.0369
lhand -28.6182 17.37
lfingers 7.12502
lthumb -1.98299 47.3405
rfemur -31.2539 -1.68886 22.1632
rtibia 48.5227
rfoot -8.01125 -11.3277
rtoes 1.78862
lfemur 2.1176 -1.86458 -25.8328
ltibia 23.077
lfoot -17.7859 -3.55316
ltoes 4.06315
426
root 0.997489 17.7779 45.7646 -3.24472 0.35536 0.879152
lowerback 11.6868 -0.836437 -2.71014
upperback 0.516519 -1.36736 1.67957
thorax -5.91287 -0.57496 3.52565
lowerneck -16.8419 -3.1481 -2.74177
upperneck 22.0743 -4.20077 2.16296
head 9.90174 -1.92669 0.649509
rclavicle -2.41026e-015 7.95139e-015
rhumerus -32.4757 -18.8255 -77.8439
rradius 34.0491
rwrist 1.2344
rhand -17.1756 23.1798
rfingers 7.12502
rthumb 9.0659 -6.60536
lclavicle -2.41026e-015 7.95139e-015
lhumerus -25.7963 -0.60521 80.2916
lradius 29.9573
lwrist 10.8335
lhand -29.6294 15.8147
lfingers 7.12502
lthumb -2.95952 45.7739
rfemur -31.0744 -1.83401 21.6877
rtibia 45.4784
rfoot -8.02753 -11.4084
rtoes 1.19191
lfemur 3.23024 -1.69418 -26.2433
ltibia 21.9191
lfoot -17.9128 -3.67994
ltoes 3.45141
427
root 0.998471 17.7798 45.9654 -3.16918 0.620786 1.66118
lowerback 11.9386 -0.94488 -3.4509
upperback -0.190424 -1.63949 1.44882
thorax -6.77105 -0.657883 3.77058
lowerneck -15.7715 -3.2735 -3.11954
upperneck 22.5998 -4.40408 2.4817
head 9.91037 -2.02533 0.810065
rclavicle 4.38569e-015 -2.0276e-014
rhumerus -34.1876 -18.5935 -77.3142
rradius 34.0406
rwrist 1.26039
rhand -17.2301 23.2749
rfingers 7.12502
rthumb 9.01331 -6.51257
lclavicle 4.38569e-015 -2.0276e-014
lhumerus -26.972 -1.03109 80.168
lradius 30.6773
lwrist 11.4305
lhand -29.9826 16.0515
lfingers 7.12502
lthumb -3.30061 46.0057
rfemur -30.8396 -1.61446 20.5633
rtibia 42.3702
rfoot -8.16968 -11.4689
rtoes 1.91137
lfemur 4.38049 -1.24253 -27.0697
ltibia 20.8714
lfoot -18.1667 -3.88078
ltoes 3.45406
428
root 0.982997 17.7754 46.1529 -3.09812 0.577789 1.86025
lowerback 10.9614 -0.877067 -3.77525
upperback 0.654483 -1.54897 1.47508
thorax -5.32458 -0.656334 3.917
lowerneck -17.1978 -3.1011 -2.73286
upperneck 22.4276 -4.11727 2.08133
head 10.0906 -1.89177 0.624695
rclavicle 3.90115e-015 -1.23246e-014
rhumerus -32.7267 -19.3513 -77.4163
rradius 33.3933
rwrist 1.58768
rhand -17.3116 23.9895
rfingers 7.12502
rthumb 8.93463 -5.80131
lclavicle 3.90115e-015 -1.23246e-014
lhumerus -24.9594 -0.853453 80.0722
lradius 31.1352
lwrist 11.4186
lhand -28.6137 18.9619
lfingers 7.12502
lthumb -1.9786 48.9325
rfemur -30.5254 -0.940873 20.2307
rtibia 39.121
rfoot -7.85469 -11.7054
rtoes 0.68007
lfemur 5.53216 -0.503585 -27.1708
ltibia 19.4786
lfoot -18.1254 -4.11093
ltoes 3.27903
429
root 0.971 17.7589 46.3183 -2.83903 0.564574 1.42568
lowerback 10.9081 -0.878865 -3.35206
upperback 0.330722 -1.4918 1.61762
thorax -5.64842 -0.623437 3.82429
lowerneck -16.6043 -3.42364 -3.16539
upperneck 22.3906 -4.54048 2.37293
head 9.99584 -2.09609 0.749126
rclavicle 1.25483e-014 -1.66979e-014
rhumerus -33.4764 -19.2874 -77.0515
rradius 33.3772
rwrist 1.42425
rhand -17.2097 23.7638
rfingers 7.12502
rthumb 9.03295 -6.0228
lclavicle 1.25483e-014 -1.66979e-014
lhumerus -24.9376 -1.1524 79.9757
lradius 31.6897
lwrist 11.6805
lhand -27.6628 22.4197
lfingers 7.12502
lthumb -1.06027 52.3968
rfemur -30.3307 -0.304627 20.6305
rtibia 35.8077
rfoot -7.5146 -11.9623
rtoes -0.963564
lfemur 6.38653 -0.0430925 -26.6419
ltibia 18.3315
lfoot -18.1206 -3.92662
ltoes 2.30078
430
root 0.964335 17.7719 46.4785 -2.49529 0.736441 1.49732
lowerback 10.7134 -0.998719 -3.49294
upperback 0.21242 -1.66269 1.6383
thorax -5.6442 -0.701794 3.94808
lowerneck -16.6166 -3.41528 -3.27425
upperneck 22.4301 -4.55476 2.58768
head 10.0211 -2.08664 0.840195
rclavicle 1.27471e-014 -8.34896e-015
rhumerus -33.6688 -19.0949 -77.0171
rradius 33.2673
rwrist 1.42777
rhand -17.5963 23.5009
rfingers 7.12502
rthumb 8.65992 -6.30147
lclavicle 1.27471e-014 -8.34896e-015
lhumerus -24.5861 -1.28278 79.8057
lradius 31.8527
lwrist 12.1848
lhand -27.9713 21.2858
lfingers 7.12502
lthumb -1.35819 51.2613
rfemur -30.3155 0.976502 20.0574
rtibia 32.4596
rfoot -8.43387 -13.0942
rtoes -2.6306
lfemur 7.09209 -0.148653 -26.7461
ltibia 17.399
lfoot -17.8556 -3.66933
ltoes 2.93279
431
root 0.955257 17.7481 46.6512 -2.3063 0.981557 1.78282
lowerback 10.6226 -1.11445 -3.84832
upperback 0.12369 -1.86127 1.58983
thorax -5.6593 -0.788651 4.12673
lowerneck -16.5496 -3.20403 -3.01791
upperneck 22.4697 -4.28354 2.39574
head 10.0026 -1.96271 0.768465
rclavicle 2.41275e-014 -1.74931e-014
rhumerus -33.8908 -19.0437 -76.9962
rradius 33.1351
rwrist 1.44233
rhand -17.9192 23.1828
rfingers 7.12502
rthumb 8.34835 -6.63226
lclavicle 2.41275e-014 -1.74931e-014
lhumerus -24.3594 -1.34608 79.6262
lradius 32.1982
lwrist 12.1987
lhand -28.4041 19.8243
lfingers 7.12502
lthumb -1.7762 49.7967
rfemur -30.0017 1.78956 19.3387
rtibia 29.2255
rfoot -8.80394 -13.5593
rtoes 3.0222
lfemur 7.92806 -0.136948 -27.0524
ltibia 16.6182
lfoot -17.7406 -3.57483
ltoes 3.61529
432
root 0.957294 17.7484 46.8295 -2.17088 1.455 2.08207
lowerback 10.6221 -1.30081 -3.98458
upperback 0.0194991 -2.13304 1.4926
thorax -5.74141 -0.915744 4.14375
lowerneck -16.5243 -3.08541 -2.81589
upperneck 22.5937 -4.11598 2.15516
head 10.0266 -1.89606 0.673456
rclavicle 1.50828e-014 -1.59028e-015
rhumerus -34.0466 -19.35 -76.8115
rradius 32.8769
rwrist 1.80527
rhand -17.7482 22.9948
rfingers 7.12502
rthumb 8.51334 -6.81355
lclavicle 1.50828e-014 -1.59028e-015
lhumerus -24.1697 -1.5291 79.5316
lradius 32.4352
lwrist 12.0974
lhand -28.9181 18.7574
lfingers 7.12502
lthumb -2.27259 48.725
rfemur -29.4687 2.25328 18.5505
rtibia 26.2002
rfoot -9.85231 -13.9584
rtoes -0.121997
lfemur 9.01007 -0.129038 -27.3877
ltibia 15.4835
lfoot -17.4571 -3.79662
ltoes 4.1538
433
root 0.949125 17.749 47.0088 -1.9805 1.69516 1.97962
lowerback 10.375 -1.41795 -3.88211
upperback 0.025187 -2.26419 1.54644
thorax -5.5849 -0.987302 4.15116
lowerneck -16.5817 -3.00824 -2.62529
upperneck 22.6063 -4.00673 1.95043
head 10.0297 -1.85268 0.584036
rclavicle 1.10574e-014 -1.03368e-014
rhumerus -33.9721 -19.7999 -76.528
rradius 32.3429
rwrist 2.44903
rhand -17.6612 23.7411
rfingers 7.12502
rthumb 8.59732 -6.06383
lclavicle 1.10574e-014 -1.03368e-014
lhumerus -23.7623 -1.62597 79.4856
lradius 32.395
lwrist 11.9344
lhand -29.3214 17.6661
lfingers 7.12502
lthumb -2.6621 47.6293
rfemur -29.1463 3.35976 18.1135
rtibia 23.5872
rfoot -10.7376 -14.459
rtoes -0.669044
lfemur 9.94246 -0.154808 -27.2559
ltibia 14.4533
lfoot -17.1799 -3.94027
ltoes 4.4651
434
root 0.925723 17.7367 47.1925 -1.85032 1.71729 1.98216
lowerback 9.92177 -1.439 -4.12184
upperback -0.00766436 -2.30134 1.60046
thorax -5.34963 -1.0052 4.33082
lowerneck -15.9566 -2.94021 -2.57828
upperneck 22.3654 -3.93095 1.93903
head 9.82252 -1.82193 0.591935
rclavicle 5.86415e-015 2.10712e-014
rhumerus -34.2927 -19.8634 -76.2977
rradius 32.1533
rwrist 2.73261
rhand -17.3758 24.0195
rfingers 7.12502
rthumb 8.87276 -5.77394
lclavicle 5.86415e-015 2.10712e-014
lhumerus -23.6924 -1.59444 79.3631
lradius 32.6708
lwrist 12.0473
lhand -28.7731 17.2891
lfingers 7.12502
lthumb -2.13257 47.2582
rfemur -28.9771 5.45789 17.3579
rtibia 21.418
rfoot -11.6118 -15.6143
rtoes 0.0435822
lfemur 11.1903 0.0114888 -27.1701
ltibia 13.2196
lfoot -16.939 -3.73034
ltoes 2.74341
